<?xml version="1.0" standalone="no"?>
<!DOCTYPE svg PUBLIC "-//W3C//DTD SVG 20010904//EN"
 "http://www.w3.org/TR/2001/REC-SVG-20010904/DTD/svg10.dtd">
<svg version="1.0" xmlns="http://www.w3.org/2000/svg"
 width="400.000000pt" height="400.000000pt" viewBox="0 0 400.000000 400.000000"
 preserveAspectRatio="xMidYMid meet">
<metadata>
Created by potrace 1.11, written by Peter Selinger 2001-2013
</metadata>
<g transform="translate(0.000000,400.000000) scale(0.100000,-0.100000)"
fill="#000000" stroke="none">
<path d="M0 2000 l0 -2000 1620 0 1620 0 0 40 c0 41 5 46 29 31 9 -6 12 -20 9
-40 -4 -29 -3 -31 27 -31 30 0 33 3 39 40 3 22 11 40 16 40 11 0 14 -7 24 -53
5 -22 12 -27 36 -27 28 0 30 2 30 41 0 33 3 40 16 35 9 -3 18 -6 20 -6 2 0 4
-16 4 -35 0 -32 2 -35 30 -35 23 0 30 5 31 20 1 11 2 26 3 33 0 6 12 13 26 15
15 2 20 0 13 -5 -6 -4 -10 -20 -10 -36 2 -24 6 -27 40 -27 36 0 37 1 37 35 0
31 3 35 25 35 22 0 25 -4 25 -35 0 -34 2 -35 36 -35 35 0 36 1 32 35 -3 30 -1
35 17 35 18 0 20 -5 17 -35 -4 -33 -3 -35 26 -35 28 0 32 4 38 35 3 20 12 35
20 35 9 0 14 -12 14 -35 0 -33 2 -35 35 -35 33 0 35 2 35 35 0 19 5 35 10 35
7 0 10 662 10 1965 l0 1965 -2000 0 -2000 0 0 -2000z m1355 1898 c40 -17 74
-42 120 -89 l63 -65 41 37 c23 21 41 42 41 47 0 5 27 23 60 40 53 28 70 32
139 32 96 0 191 -27 276 -78 73 -44 197 -168 245 -243 26 -43 57 -71 123 -118
49 -33 92 -61 97 -61 4 0 10 -7 14 -15 3 -8 12 -15 20 -15 7 0 16 -7 20 -15 9
-24 49 -17 96 18 42 30 49 32 130 31 79 0 91 -3 165 -41 136 -69 170 -87 175
-93 3 -3 21 -16 41 -28 50 -30 91 -73 85 -89 -3 -7 -1 -13 3 -13 12 0 51 -63
56 -89 2 -13 -1 -18 -9 -15 -8 3 -16 -5 -20 -18 -9 -36 -7 -42 9 -28 12 10 15
10 15 -4 0 -26 1 -30 13 -44 8 -10 7 -16 -4 -23 -9 -5 -10 -9 -2 -9 15 0 13
-151 -2 -162 -5 -4 -1 -6 10 -6 36 3 115 -43 141 -81 48 -72 58 -86 77 -107
10 -12 20 -30 21 -40 2 -11 7 -19 12 -19 19 0 33 -16 39 -45 4 -16 14 -34 23
-39 14 -8 14 -12 3 -25 -8 -9 -11 -19 -7 -23 3 -3 6 -1 6 6 0 7 5 9 10 6 8 -5
7 -11 -1 -21 -6 -7 -15 -12 -19 -9 -10 6 -30 -18 -34 -41 -8 -41 -19 -139 -18
-146 4 -16 -18 -7 -30 12 -7 11 -17 20 -21 20 -5 0 0 -12 11 -27 25 -36 33
-71 38 -164 4 -84 -3 -103 -71 -185 -72 -89 -173 -182 -277 -255 -57 -39 -114
-82 -128 -95 -43 -38 -171 -85 -212 -77 -13 3 -30 14 -37 25 -10 16 -9 24 4
44 8 13 24 24 35 24 10 0 25 6 32 13 7 7 38 31 68 54 30 23 70 58 87 80 90
106 113 135 113 140 0 3 -8 -1 -18 -10 -10 -10 -22 -14 -25 -10 -8 7 11 33 24
33 4 0 20 11 35 25 15 14 24 25 20 25 -4 0 2 13 14 30 13 19 17 30 9 30 -7 0
-5 8 7 21 18 20 18 21 -1 32 -26 16 -65 27 -63 19 0 -4 0 -14 -1 -22 -1 -13
-3 -13 -10 -1 -7 11 -12 10 -22 -8 -24 -38 -40 -26 -35 27 6 61 14 82 35 82
14 0 14 2 1 10 -13 8 -13 10 -1 10 11 0 10 4 -4 14 -17 12 -17 14 -2 37 10 13
17 31 17 41 0 9 10 24 22 32 12 9 18 16 13 16 -6 0 -3 6 5 13 16 13 22 28 25
68 1 14 9 36 18 50 9 13 17 31 17 41 0 10 4 18 10 18 5 0 17 14 26 31 8 17 11
28 5 25 -7 -4 -8 -1 -5 8 3 9 10 16 16 16 5 0 6 5 3 10 -3 6 0 10 7 10 9 0 10
2 2 8 -7 4 -11 18 -11 32 1 38 -14 100 -24 100 -5 0 -9 -9 -9 -19 0 -11 -4
-22 -9 -25 -4 -3 -6 -16 -4 -30 3 -13 0 -27 -6 -30 -6 -4 -11 -18 -11 -32 0
-13 -5 -23 -11 -22 -6 2 -13 -6 -15 -17 -1 -11 -8 -21 -13 -23 -6 -2 -11 -10
-11 -18 0 -8 -4 -14 -9 -14 -5 0 -12 -11 -15 -25 -3 -13 -17 -30 -31 -37 -13
-7 -24 -17 -25 -23 -2 -42 -44 -93 -163 -203 -26 -23 -47 -51 -47 -61 0 -19
-81 -101 -101 -101 -7 0 -10 12 -7 30 3 17 1 33 -4 36 -4 3 -8 18 -8 35 0 19
-5 29 -15 29 -8 0 -15 6 -15 14 0 8 -6 16 -14 19 -8 3 -31 40 -50 81 -20 42
-40 76 -44 76 -9 0 -50 -28 -72 -49 -9 -9 -40 -36 -70 -61 -72 -60 -80 -69
-80 -85 0 -26 12 -45 29 -45 9 0 27 -9 41 -20 14 -11 30 -20 36 -20 7 0 25
-13 40 -29 16 -16 42 -31 57 -33 15 -2 26 -7 25 -13 -5 -15 -51 -5 -69 16 -20
23 -33 25 -25 4 3 -8 2 -14 -2 -14 -4 1 -14 1 -22 0 -12 -1 -12 -4 3 -12 9 -5
17 -15 17 -21 0 -7 10 -22 22 -35 15 -16 17 -23 8 -23 -11 0 -11 -3 -2 -12 7
-7 12 -17 12 -22 0 -6 -5 -4 -10 4 -7 12 -9 11 -8 -6 2 -15 8 -20 23 -17 18 3
18 2 -2 -8 -27 -14 -27 -15 -6 -76 13 -40 19 -116 13 -193 0 -8 1 -35 4 -59 3
-24 3 -42 0 -39 -3 3 -7 20 -9 38 -3 18 -7 35 -11 39 -4 3 -4 -6 -1 -20 5 -18
2 -31 -8 -39 -9 -7 -13 -21 -10 -31 4 -11 2 -19 -5 -19 -6 0 -8 -4 -5 -10 3
-5 2 -10 -3 -10 -6 0 -8 -9 -5 -20 3 -11 -5 -36 -17 -57 -22 -37 -22 -37 -2
-53 18 -15 18 -17 3 -28 -14 -10 -14 -11 0 -6 9 3 22 -3 30 -13 13 -16 12 -17
-3 -5 -14 12 -21 11 -40 -2 -12 -9 -18 -16 -13 -16 4 0 -2 -12 -16 -26 l-24
-26 32 18 c17 10 29 22 26 27 -3 5 4 4 16 -2 11 -7 21 -14 21 -17 0 -3 -4 -2
-10 1 -5 3 -15 -5 -22 -19 -6 -14 -16 -26 -21 -26 -5 0 -3 7 4 17 12 14 12 16
0 12 -22 -8 -24 -25 -4 -44 16 -17 16 -17 -6 -10 -15 5 -21 3 -17 -3 3 -6 0
-13 -6 -16 -7 -3 -3 -3 9 -1 12 3 25 0 29 -6 5 -8 3 -9 -6 -4 -9 6 -10 2 -5
-16 7 -22 7 -23 -11 -9 -17 14 -18 14 -6 -2 8 -9 16 -32 19 -49 4 -31 4 -32
-13 -18 -10 7 -15 9 -11 3 4 -7 -7 -19 -26 -29 l-32 -16 34 5 c34 6 76 34 66
44 -3 3 0 11 7 19 8 11 8 17 -2 26 -10 10 -12 8 -6 -8 5 -15 4 -17 -4 -8 -9 8
-9 16 -1 30 6 10 11 12 11 6 0 -7 7 -13 15 -13 18 0 18 -1 3 -37 -6 -15 -12
-30 -13 -33 -17 -52 -81 -178 -104 -205 -9 -11 -23 -32 -30 -47 -8 -15 -18
-25 -23 -22 -4 3 -8 -1 -8 -9 0 -27 -163 -173 -259 -232 -9 -5 -31 -20 -48
-32 -17 -13 -35 -23 -39 -23 -4 0 -15 -6 -23 -13 -20 -17 -168 -72 -241 -91
-30 -7 -103 -19 -162 -27 -265 -32 -576 54 -799 221 -89 67 -209 195 -270 288
-259 396 -256 890 7 1289 91 136 264 289 419 370 70 36 255 100 337 118 16 3
27 9 27 13 -4 27 3 52 16 52 16 0 24 26 62 195 39 176 45 217 33 229 -16 16
-113 23 -125 9 -13 -16 -206 -66 -216 -56 -14 16 12 124 45 185 19 35 44 88
56 118 53 134 199 390 257 448 17 18 16 23 -2 16 -17 -7 -48 14 -40 26 3 4 -5
10 -16 13 -12 3 -19 10 -16 14 3 5 2 15 -2 21 -5 9 -14 -1 -26 -28 -21 -47
-38 -59 -84 -58 -24 1 -31 5 -26 16 3 10 0 12 -10 8 -8 -3 -15 0 -15 7 0 7 -5
4 -11 -5 -5 -10 -17 -18 -26 -18 -14 0 -14 -2 1 -19 17 -19 17 -19 -18 -17
-39 3 -45 -4 -21 -24 21 -17 19 -34 -2 -26 -17 6 -17 5 0 -8 15 -12 15 -15 2
-26 -8 -7 -15 -20 -15 -29 0 -13 2 -14 9 -2 6 10 8 -1 4 -30 -3 -24 -11 -48
-18 -54 -6 -5 -10 -17 -8 -25 4 -13 3 -13 -6 0 -6 8 -8 24 -5 35 4 11 3 17 -1
12 -5 -4 -9 -15 -10 -25 -1 -9 -7 -27 -13 -39 -9 -17 -10 -23 -1 -23 6 0 8 -7
5 -16 -3 -8 -2 -12 4 -9 14 8 13 2 -5 -31 -8 -16 -15 -37 -15 -46 0 -10 -5
-18 -11 -18 -5 0 -7 -5 -4 -11 5 -7 -7 -9 -35 -6 -52 5 -64 22 -42 59 9 15 20
28 24 28 4 0 8 8 8 18 -1 15 -2 15 -16 -3 -9 -11 -26 -40 -39 -65 -28 -53 -61
-92 -92 -109 -22 -11 -34 1 -13 14 15 9 50 95 47 116 -2 11 -9 25 -15 31 -15
15 -16 3 -2 -23 14 -25 6 -24 -18 1 -17 18 -20 19 -32 5 -10 -12 -10 -15 1
-16 8 0 5 -4 -7 -9 -23 -9 -96 -113 -98 -139 -1 -12 7 -15 29 -14 28 3 27 1
-12 -17 -32 -14 -47 -29 -61 -62 -32 -70 -36 -90 -21 -99 11 -7 10 -11 -4 -22
-15 -10 -20 -32 -24 -115 -4 -67 -10 -106 -19 -113 -19 -15 -61 -3 -74 21 -28
52 -37 197 -26 425 4 82 35 235 48 235 5 0 6 5 3 10 -3 6 -1 10 5 10 6 0 8 5
5 10 -3 6 -1 10 5 10 6 0 8 5 5 10 -3 6 -1 10 5 10 6 0 8 5 5 10 -3 6 1 13 9
16 9 3 16 11 16 18 0 6 8 23 17 36 10 14 16 38 14 58 -2 23 1 32 8 28 6 -4 11
1 12 11 2 31 4 38 17 60 8 14 9 24 2 28 -6 4 -8 12 -4 18 3 7 -1 3 -10 -7 -8
-10 -13 -23 -10 -28 3 -5 0 -15 -6 -23 -6 -8 -9 -19 -5 -25 3 -5 0 -10 -8 -10
-20 0 -14 38 12 80 11 19 18 43 15 55 -4 17 3 25 38 42 107 52 205 70 390 72
121 1 144 -2 193 -21z m-255 -647 c0 -6 -4 -13 -10 -16 -5 -3 -10 1 -10 9 0 9
5 16 10 16 6 0 10 -4 10 -9z m-203 -338 c-3 -10 -5 -2 -5 17 0 19 2 27 5 18 2
-10 2 -26 0 -35z m311 0 c-10 -2 -26 -2 -35 0 -10 3 -2 5 17 5 19 0 27 -2 18
-5z m-218 -43 c0 -5 -2 -10 -4 -10 -3 0 -8 5 -11 10 -3 6 -1 10 4 10 6 0 11
-4 11 -10z m2680 -740 c0 -5 -2 -10 -4 -10 -3 0 -8 5 -11 10 -3 6 -1 10 4 10
6 0 11 -4 11 -10z m-20 -45 c-8 -10 -7 -14 2 -18 9 -4 9 -6 1 -6 -6 -1 -14 3
-17 8 -9 13 4 42 16 35 5 -3 5 -11 -2 -19z m-883 -297 c-3 -8 -6 -5 -6 6 -1
11 2 17 5 13 3 -3 4 -12 1 -19z m428 2 c3 -5 -1 -10 -10 -10 -9 0 -13 5 -10
10 3 6 8 10 10 10 2 0 7 -4 10 -10z m-586 -554 c-9 -8 -10 -7 -5 7 3 10 7 24
7 30 1 7 3 4 6 -7 3 -10 -1 -23 -8 -30z m36 -173 c-4 -10 -7 -28 -6 -40 0 -13
-3 -23 -7 -23 -5 0 -8 8 -7 18 2 24 15 62 22 62 3 0 2 -8 -2 -17z"/>
<path d="M1148 3893 c7 -3 16 -2 19 1 4 3 -2 6 -13 5 -11 0 -14 -3 -6 -6z"/>
<path d="M1200 3690 c0 -5 5 -10 10 -10 6 0 10 5 10 10 0 6 -4 10 -10 10 -5 0
-10 -4 -10 -10z"/>
<path d="M775 3670 c-3 -5 -2 -10 4 -10 5 0 13 5 16 10 3 6 2 10 -4 10 -5 0
-13 -4 -16 -10z"/>
<path d="M1015 3630 c16 -16 31 -28 33 -25 7 7 -39 55 -52 55 -5 0 3 -13 19
-30z"/>
<path d="M2270 3625 c0 -6 6 -17 13 -24 10 -10 9 -11 -5 -6 -21 8 -21 10 -4
-39 11 -31 11 -48 2 -85 -7 -25 -10 -57 -9 -71 2 -14 5 -46 6 -72 2 -41 3 -44
13 -26 11 21 12 20 29 -12 12 -23 14 -35 6 -38 -6 -2 -11 -10 -11 -18 0 -8
-10 -25 -21 -37 l-21 -22 4 33 c3 17 1 32 -4 32 -7 0 -11 -36 -12 -106 0 -13
-5 -20 -12 -17 -8 3 -11 -4 -10 -21 2 -14 -1 -23 -5 -20 -5 3 -9 12 -9 20 0
20 -19 18 -27 -3 -4 -10 -11 -21 -17 -25 -7 -5 -7 -8 2 -8 7 0 10 -5 7 -10 -4
-6 -11 -7 -17 -4 -7 5 -9 0 -6 -14 4 -13 1 -22 -5 -22 -6 0 -2 -6 8 -14 18
-13 18 -14 0 -23 -12 -7 -18 -21 -17 -42 0 -21 -6 -36 -18 -43 -10 -6 -16 -18
-13 -25 3 -7 -1 -13 -7 -13 -9 0 -6 -8 6 -22 15 -17 16 -20 3 -16 -12 5 -15 1
-11 -18 6 -35 -26 -117 -44 -110 -9 3 -14 -2 -14 -14 0 -35 -35 -2 -49 46 -15
49 -31 67 -31 35 0 -12 4 -21 8 -21 4 0 14 -20 21 -45 8 -26 17 -42 24 -38 6
3 7 1 3 -6 -4 -6 -17 -9 -29 -6 -12 2 -16 2 -9 -1 6 -3 12 -13 12 -23 0 -9 5
-22 11 -28 6 -6 8 -16 4 -23 -5 -8 -11 -6 -21 7 -13 16 -14 15 -8 -11 5 -20 3
-27 -4 -22 -10 6 -21 24 -102 171 -56 102 -71 125 -84 125 -13 0 -36 55 -36
88 0 12 -5 22 -11 22 -5 0 -8 -4 -4 -9 5 -9 -61 -162 -102 -236 -31 -55 -83
-160 -83 -166 0 -4 15 -10 34 -13 19 -4 37 -12 39 -19 4 -9 6 -9 6 1 1 6 13
12 29 12 40 0 167 -26 245 -50 57 -18 71 -19 84 -8 9 7 24 12 35 10 10 -2 18
2 18 8 0 6 -6 8 -12 4 -10 -5 -10 -4 -2 5 14 15 44 4 38 -14 -11 -27 28 -76
99 -124 40 -27 103 -75 140 -106 39 -34 71 -54 76 -49 88 94 177 229 159 240
-7 5 -3 10 10 15 25 10 29 41 7 59 -17 14 -20 3 -5 -20 25 -41 -108 -40 -196
1 -26 12 -62 19 -105 19 -64 0 -120 11 -149 30 -13 8 -11 12 7 30 12 11 27 20
33 20 6 0 8 5 5 10 -3 6 1 10 10 10 8 0 18 8 22 18 12 35 54 127 61 132 8 6
25 34 60 100 13 25 30 50 38 56 10 8 11 13 4 16 -17 5 -1 35 22 41 11 3 17 10
13 16 -12 20 28 82 105 161 43 44 82 80 87 80 5 0 28 17 51 38 23 22 45 36 48
33 4 -3 5 0 2 8 -5 18 -48 25 -48 8 0 -9 -2 -9 -9 1 -4 8 -11 13 -15 13 -15
-1 -35 12 -30 20 3 5 -9 9 -26 9 -25 0 -31 4 -26 15 4 13 2 13 -14 5 -12 -7
-21 -7 -25 0 -3 5 -1 10 6 10 20 0 -20 37 -62 58 -21 11 -36 14 -33 8 3 -6 -1
-3 -9 6 -11 14 -16 15 -27 5 -10 -9 -11 -9 -6 1 7 13 -17 45 -28 37 -3 -3 -4
-2 -1 1 2 4 -3 13 -11 22 -9 8 -14 25 -11 38 2 13 -4 36 -14 51 -11 15 -19 23
-19 18z m-70 -594 c0 -5 -6 -14 -14 -20 -12 -10 -14 -9 -11 6 2 10 4 19 4 21
2 6 21 1 21 -7z m-170 -531 c0 -5 -2 -10 -4 -10 -3 0 -8 5 -11 10 -3 6 -1 10
4 10 6 0 11 -4 11 -10z"/>
<path d="M2330 3526 c0 -2 8 -10 18 -17 15 -13 16 -12 3 4 -13 16 -21 21 -21
13z"/>
<path d="M2760 3371 c0 -7 -4 -9 -10 -6 -5 3 -18 2 -27 -4 -15 -8 -12 -10 15
-9 18 1 35 4 37 8 3 4 17 6 32 3 77 -10 97 -11 83 -3 -27 15 -130 23 -130 11z"/>
<path d="M1912 3314 c-2 -19 1 -34 5 -34 10 0 14 58 5 64 -5 3 -9 -11 -10 -30z"/>
<path d="M2156 3287 c3 -10 9 -15 12 -12 3 3 0 11 -7 18 -10 9 -11 8 -5 -6z"/>
<path d="M1885 3189 c-10 -24 -27 -56 -37 -71 -22 -32 -23 -45 -2 -27 20 16
67 116 62 131 -2 6 -12 -9 -23 -33z"/>
<path d="M3185 3220 c3 -5 11 -10 16 -10 6 0 7 5 4 10 -3 6 -11 10 -16 10 -6
0 -7 -4 -4 -10z"/>
<path d="M3270 3150 c0 -5 5 -10 11 -10 5 0 7 5 4 10 -3 6 -8 10 -11 10 -2 0
-4 -4 -4 -10z"/>
<path d="M1990 3100 c0 -5 5 -10 11 -10 5 0 7 5 4 10 -3 6 -8 10 -11 10 -2 0
-4 -4 -4 -10z"/>
<path d="M1858 3079 c-13 -11 -17 -17 -10 -14 8 4 25 10 40 14 21 6 23 9 10
14 -10 3 -26 -2 -40 -14z"/>
<path d="M1796 3054 c-4 -9 1 -14 14 -14 23 0 27 15 6 23 -8 3 -17 -1 -20 -9z"/>
<path d="M2125 3060 c-3 -5 -1 -10 4 -10 6 0 11 5 11 10 0 6 -2 10 -4 10 -3 0
-8 -4 -11 -10z"/>
<path d="M1830 3004 c0 -8 5 -12 10 -9 6 4 8 11 5 16 -9 14 -15 11 -15 -7z"/>
<path d="M1847 2953 c8 -3 11 -14 7 -28 -3 -13 0 -26 7 -30 8 -6 10 -4 4 5 -4
7 -2 15 4 19 16 10 3 41 -18 40 -10 0 -11 -2 -4 -6z"/>
<path d="M1792 2915 c0 -16 2 -22 5 -12 2 9 2 23 0 30 -3 6 -5 -1 -5 -18z"/>
<path d="M2061 2924 c0 -11 3 -14 6 -6 3 7 2 16 -1 19 -3 4 -6 -2 -5 -13z"/>
<path d="M2110 2930 c0 -5 5 -10 11 -10 5 0 7 5 4 10 -3 6 -8 10 -11 10 -2 0
-4 -4 -4 -10z"/>
<path d="M2777 2893 c-15 -15 -5 -22 32 -21 22 0 44 -3 50 -6 6 -4 11 -3 11 2
0 20 -78 41 -93 25z"/>
<path d="M1810 2880 c-9 -6 -10 -10 -3 -10 6 0 15 5 18 10 8 12 4 12 -15 0z"/>
<path d="M2881 2865 c-1 -6 19 -31 44 -55 29 -28 45 -39 45 -28 0 8 -11 24
-25 34 -14 10 -25 25 -25 32 0 8 -6 12 -14 9 -8 -3 -17 -1 -20 6 -2 7 -5 7 -5
2z"/>
<path d="M1888 2833 c7 -3 16 -2 19 1 4 3 -2 6 -13 5 -11 0 -14 -3 -6 -6z"/>
<path d="M1840 2820 c0 -5 5 -10 11 -10 5 0 7 5 4 10 -3 6 -8 10 -11 10 -2 0
-4 -4 -4 -10z"/>
<path d="M1930 2814 c0 -8 -4 -12 -10 -9 -5 3 -10 1 -10 -5 0 -7 7 -9 16 -6 9
3 18 6 20 6 2 0 4 7 4 15 0 8 -4 15 -10 15 -5 0 -10 -7 -10 -16z"/>
<path d="M1865 2783 c3 -29 16 -53 28 -53 7 0 7 4 -1 12 -7 7 -12 22 -12 35 0
13 -4 23 -8 23 -5 0 -8 -8 -7 -17z"/>
<path d="M1930 2760 c0 -5 5 -10 10 -10 6 0 10 5 10 10 0 6 -4 10 -10 10 -5 0
-10 -4 -10 -10z"/>
<path d="M2972 2736 c1 -15 10 -27 22 -30 14 -4 16 -2 7 7 -6 6 -11 19 -11 29
0 10 -4 18 -10 18 -5 0 -9 -11 -8 -24z"/>
<path d="M1936 2731 c-4 -6 0 -11 8 -11 10 0 16 -9 16 -25 0 -14 5 -25 11 -25
13 0 2 39 -16 58 -9 10 -15 11 -19 3z"/>
<path d="M2980 2684 c0 -8 5 -12 10 -9 6 4 8 11 5 16 -9 14 -15 11 -15 -7z"/>
<path d="M2620 2600 c0 -5 5 -10 10 -10 6 0 10 5 10 10 0 6 -4 10 -10 10 -5 0
-10 -4 -10 -10z"/>
<path d="M2601 2590 c0 -8 6 -23 14 -33 13 -18 14 -18 25 2 9 18 8 21 -9 21
-11 0 -22 6 -24 13 -4 8 -6 7 -6 -3z"/>
<path d="M2544 2559 c-3 -6 -1 -16 5 -22 8 -8 11 -5 11 11 0 24 -5 28 -16 11z"/>
<path d="M2945 2519 c-4 -6 -5 -12 -2 -15 2 -3 7 2 10 11 7 17 1 20 -8 4z"/>
<path d="M2910 2479 c0 -5 5 -7 10 -4 6 3 10 8 10 11 0 2 -4 4 -10 4 -5 0 -10
-5 -10 -11z"/>
<path d="M3626 2482 c-2 -4 -1 -14 5 -22 7 -12 9 -10 9 8 0 23 -5 28 -14 14z"/>
<path d="M2940 2421 c0 -6 4 -13 10 -16 6 -3 7 1 4 9 -7 18 -14 21 -14 7z"/>
<path d="M3490 2220 c0 -5 10 -10 23 -10 13 0 28 -5 35 -12 9 -9 12 -9 12 0 0
7 -12 17 -26 22 -32 13 -44 13 -44 0z"/>
<path d="M2399 2013 c-13 -16 -12 -17 4 -4 9 7 17 15 17 17 0 8 -8 3 -21 -13z"/>
<path d="M2895 2020 c-3 -5 1 -10 9 -10 9 0 16 5 16 10 0 6 -4 10 -9 10 -6 0
-13 -4 -16 -10z"/>
<path d="M831 1483 c0 -15 6 -64 12 -108 l12 -80 35 0 c33 0 36 2 55 58 12 32
24 55 28 51 4 -4 10 -28 13 -54 8 -61 13 -68 49 -72 29 -3 30 -2 62 96 18 55
31 101 30 102 -1 1 -14 5 -29 9 -25 6 -28 4 -41 -42 -8 -26 -18 -48 -23 -48
-5 0 -12 20 -16 44 -9 53 -18 64 -48 59 -16 -2 -27 -16 -39 -45 -23 -60 -28
-60 -38 -1 -7 48 -11 53 -36 56 -24 3 -27 0 -26 -25z"/>
<path d="M1749 1496 c-20 -15 -20 -57 1 -54 8 1 21 -1 28 -5 7 -5 12 -3 12 7
0 8 2 20 5 28 8 20 -27 39 -46 24z"/>
<path d="M1161 1351 l-40 -79 25 -5 c16 -3 28 1 31 9 8 21 56 17 76 -6 16 -20
38 -26 49 -14 4 3 0 24 -7 47 -8 23 -19 61 -25 85 -10 37 -14 42 -40 42 -27 0
-33 -7 -69 -79z m69 10 c0 -5 3 -16 6 -25 4 -12 0 -16 -16 -16 -16 0 -20 4
-16 16 3 9 6 20 6 25 0 5 5 9 10 9 6 0 10 -4 10 -9z"/>
<path d="M1350 1383 c0 -22 -3 -60 -6 -85 -6 -43 -5 -46 19 -50 22 -4 26 -1
32 29 5 30 9 33 40 33 40 0 71 36 60 69 -7 23 -16 27 -88 36 l-57 7 0 -39z
m88 -20 c-5 -26 -38 -29 -38 -4 0 15 6 21 21 21 14 0 19 -5 17 -17z"/>
<path d="M1536 1339 c-10 -102 -9 -109 18 -109 19 0 25 6 28 28 3 23 8 27 40
30 42 4 61 21 61 59 0 37 -28 53 -88 53 l-52 0 -7 -61z m91 15 c7 -18 -17 -38
-31 -24 -11 11 -1 40 14 40 6 0 13 -7 17 -16z"/>
<path d="M1730 1361 c0 -15 -3 -56 -6 -90 -7 -61 -7 -61 20 -61 18 0 26 5 27
18 0 9 3 47 8 84 5 53 4 69 -7 73 -30 11 -42 5 -42 -24z"/>
<path d="M1836 1363 c-2 -10 -6 -49 -8 -88 -3 -64 -1 -70 18 -73 17 -2 22 5
30 45 l9 48 29 -52 c22 -39 35 -53 51 -53 19 0 23 7 29 46 3 26 6 66 6 90 0
37 -3 44 -20 44 -19 0 -26 -14 -32 -69 -3 -22 -7 -19 -35 27 -33 54 -67 69
-77 35z"/>
<path d="M2094 1350 c-56 -22 -72 -103 -29 -145 19 -19 35 -25 70 -25 64 0 85
13 85 54 0 31 -3 34 -37 39 -39 7 -60 -3 -49 -22 4 -6 14 -11 22 -11 8 0 14
-4 14 -10 0 -20 -59 -11 -70 10 -21 39 17 91 51 69 18 -11 69 -12 69 -1 0 30
-85 59 -126 42z"/>
<path d="M2485 1293 c-3 -32 -8 -68 -11 -80 -2 -12 0 -25 6 -28 5 -3 10 0 10
7 1 7 3 46 6 86 7 85 -2 97 -11 15z"/>
<path d="M1278 1183 c6 -3 10 -9 6 -14 -8 -14 6 -11 21 5 12 11 10 13 -13 13
-15 0 -21 -2 -14 -4z"/>
<path d="M1377 1176 c-6 -14 0 -26 14 -26 8 0 6 26 -3 35 -3 3 -8 -1 -11 -9z"/>
<path d="M1520 1156 c0 -8 4 -17 8 -20 4 -2 8 4 8 15 0 10 -4 19 -8 19 -4 0
-8 -6 -8 -14z"/>
<path d="M1560 1166 c0 -4 7 -14 15 -22 8 -9 15 -11 15 -6 0 5 -7 15 -15 22
-8 7 -15 9 -15 6z"/>
<path d="M2466 1154 c-8 -21 -8 -24 3 -24 5 0 11 9 14 20 6 24 -8 27 -17 4z"/>
<path d="M1338 1153 c7 -3 16 -2 19 1 4 3 -2 6 -13 5 -11 0 -14 -3 -6 -6z"/>
<path d="M1475 1150 c3 -5 8 -10 11 -10 2 0 4 5 4 10 0 6 -5 10 -11 10 -5 0
-7 -4 -4 -10z"/>
<path d="M1697 1148 c-3 -9 -16 -18 -29 -21 -19 -4 -20 -4 -3 -5 27 -2 48 13
43 29 -3 10 -6 9 -11 -3z"/>
<path d="M1735 1139 c12 -19 57 -31 69 -18 8 9 8 10 -2 5 -7 -4 -24 -1 -37 8
-28 19 -39 20 -30 5z"/>
<path d="M1788 1143 c7 -3 16 -2 19 1 4 3 -2 6 -13 5 -11 0 -14 -3 -6 -6z"/>
<path d="M2453 1106 c4 -10 1 -13 -9 -9 -7 3 -14 1 -14 -5 0 -17 28 -22 34 -6
9 23 7 34 -5 34 -6 0 -9 -7 -6 -14z"/>
<path d="M2436 1043 c-19 -71 -19 -70 -3 -48 20 28 31 65 18 65 -5 0 -12 -8
-15 -17z"/>
<path d="M1266 932 c-3 -6 -1 -14 5 -17 15 -10 25 3 12 16 -7 7 -13 7 -17 1z"/>
<path d="M1318 874 c-2 -40 1 -58 10 -62 18 -6 18 -5 25 61 5 51 4 57 -13 57
-15 0 -19 -10 -22 -56z"/>
<path d="M1080 904 c0 -8 7 -30 14 -49 16 -36 38 -39 51 -7 6 15 8 14 16 -5
13 -34 38 -28 55 13 18 43 4 71 -17 33 l-12 -23 -8 22 c-11 28 -37 28 -49 0
l-9 -23 -6 22 c-8 26 -35 39 -35 17z"/>
<path d="M1444 905 c-4 -8 -14 -15 -24 -15 -25 0 -42 -24 -38 -57 3 -24 9 -29
41 -34 21 -3 39 -3 41 0 2 3 7 32 11 64 6 49 5 57 -9 57 -9 0 -19 -7 -22 -15z
m-4 -66 c0 -10 -7 -19 -15 -19 -15 0 -21 31 -9 43 11 10 24 -3 24 -24z"/>
<path d="M1256 878 c-10 -39 -7 -68 8 -68 14 0 26 29 26 68 0 12 -6 22 -14 22
-7 0 -16 -10 -20 -22z"/>
<path d="M1761 868 c-14 -14 -17 -26 -12 -36 5 -8 6 -23 4 -33 -3 -11 3 -22
16 -29 25 -13 49 -4 32 13 -13 13 -14 44 -2 49 11 4 2 58 -10 58 -4 0 -17 -10
-28 -22z"/>
<path d="M2550 881 c0 -6 -8 -11 -17 -12 -10 0 -13 -3 -6 -5 18 -8 49 11 34
20 -6 4 -11 2 -11 -3z"/>
<path d="M1510 866 c-32 -39 25 -100 70 -76 27 14 16 32 -15 24 -27 -7 -42 11
-25 31 9 11 16 12 30 2 26 -16 40 1 16 19 -25 18 -60 18 -76 0z"/>
<path d="M1643 863 c-23 -9 -13 -25 12 -21 36 7 31 -9 -5 -17 -17 -4 -30 -13
-30 -21 0 -16 7 -20 63 -29 l37 -6 0 40 c0 50 -32 73 -77 54z m37 -63 c0 -5
-4 -10 -10 -10 -5 0 -10 5 -10 10 0 6 5 10 10 10 6 0 10 -4 10 -10z"/>
<path d="M1837 843 c-14 -14 -6 -34 18 -43 35 -13 31 -21 -7 -13 -30 6 -32 5
-19 -10 18 -22 79 -23 88 -1 4 10 -1 20 -12 26 -13 8 -14 12 -5 18 7 4 9 13 6
19 -8 12 -58 15 -69 4z"/>
<path d="M2495 839 c-11 -17 -2 -18 19 -3 17 12 17 14 4 14 -9 0 -20 -5 -23
-11z"/>
</g>
</svg>
